<svg width="201" height="156" viewBox="0 0 201 156" fill="none" xmlns="http://www.w3.org/2000/svg">
<path d="M16.7822 62.1411C17.6396 60.3455 19.1223 59.1415 21.2305 58.529C24.6873 57.5381 27.4819 57.7664 29.6142 59.214C31.7919 60.6504 33.1481 62.2641 33.6828 64.055C34.2629 65.8347 34.0484 66.9203 33.0392 67.3116C31.5545 67.7233 30.53 67.7581 29.9657 67.4159C29.5689 67.5611 28.9755 67.3942 28.1855 66.9151C27.8802 66.8457 27.3899 66.4133 26.7146 65.6178L25.5503 64.1012C24.9878 63.3742 24.4235 63.0319 23.8574 63.0745C23.2441 63.513 23.0707 64.2762 23.3372 65.364C24.0404 67.45 25.5599 69.2398 27.8957 70.7337C27.8957 70.7337 27.935 70.7961 28.0136 70.921C28.1265 70.9894 28.5553 71.2688 29.3 71.759C33.8467 74.8252 36.4824 77.5429 37.2068 79.9119C37.5843 81.453 37.5168 82.5505 37.0044 83.2046C35.6216 85.9937 33.3776 87.8166 30.2722 88.6734C27.1669 89.5302 24.3446 89.1885 21.8053 87.6485C21.1281 87.2378 20.7284 86.7831 20.6063 86.2846C20.1234 85.49 19.8939 84.9456 19.918 84.6514C19.4711 83.4156 19.2379 82.4637 19.2185 81.7959C19.1351 80.2788 20.0171 79.27 21.8644 78.7694C22.5443 78.6029 23.0748 78.9053 23.456 79.6768C24.6115 81.8441 25.5274 83.2293 26.2036 83.8324C26.9252 84.4244 27.8697 84.5534 29.0371 84.2194C30.5106 83.7623 31.0078 82.7517 30.5285 81.1874C30.0946 79.6121 28.9858 78.3222 27.2023 77.3177C26.6158 76.8848 26.0626 76.5879 25.5427 76.427C25.057 76.2096 24.7296 76.0496 24.5603 75.9469C24.4816 75.8221 24.335 75.7138 24.1204 75.6223C23.0362 75.1191 21.5862 74.2011 19.7702 72.8682C17.9996 71.5242 16.8913 70.1381 16.4454 68.7099C15.6312 66.1707 15.7434 63.9811 16.7822 62.1411ZM38.5059 54.3693C39.7362 52.7226 42.0714 51.9584 45.5116 52.0766C46.371 52.2505 47.2068 52.6223 48.019 53.1921C48.4585 53.6129 48.9021 54.3451 49.3498 55.3885C49.7976 56.4319 50.0979 57.5595 50.2506 58.7713C50.4486 59.972 50.3811 61.0696 50.0482 62.0641C49.7494 63.0021 48.9761 63.7681 47.7283 64.362C46.7764 64.5952 46.115 64.4449 45.744 63.9112C45.1251 63.1499 44.8513 62.4242 44.9225 61.7341C44.8253 60.7489 44.4117 59.6491 43.6818 58.4345C43.5689 58.3661 43.3312 58.3763 42.9686 58.4651L42.5191 60.1608C42.4729 60.3643 42.4207 61.8184 42.3626 64.5233C42.3387 67.1717 42.3873 68.8414 42.5086 69.5324C42.6187 70.1781 42.695 70.784 42.7376 71.3501C43.5037 74.4776 44.2689 76.6204 45.033 77.7786C45.7861 78.8913 46.4226 79.5282 46.9424 79.6891C47.1117 79.7918 47.5137 79.7654 48.1482 79.61C48.8281 79.4434 49.5089 79.0845 50.1907 78.5331C50.7484 77.8679 51.222 77.0553 51.6114 76.095C51.567 75.9137 51.8856 75.5474 52.5674 74.996L52.978 74.3189C54.6107 73.7268 55.6722 74.2355 56.1626 75.845C56.3643 76.2761 56.3504 76.808 56.1211 77.4407C56.0277 78.0402 55.9412 78.3736 55.8616 78.4412C55.9061 78.6225 55.5495 79.8149 54.792 82.0184C54.3388 82.1294 54.0437 82.2978 53.9068 82.5235C53.2121 83.4144 52.2307 83.919 50.9625 84.0375C50.8154 84.0255 50.6739 84.0362 50.5379 84.0695C50.4019 84.1028 49.6716 84.1616 48.3469 84.2458L47.3951 84.479C46.15 84.4957 45.2846 84.3954 44.7989 84.178C44.2217 84.1753 43.5149 84.0361 42.6787 83.7605L41.4937 83.0418C41.3466 83.0298 41.002 82.898 40.4599 82.6464C39.952 82.3384 39.6306 82.1048 39.4955 81.9457C39.3947 81.7302 39.1583 81.4518 38.7864 81.1105C38.4487 80.7127 38.2355 80.3325 38.1467 79.9699L37.4736 78.6934C37.3404 78.1495 37.1891 77.8262 37.0198 77.7235C36.9976 77.6329 36.8686 77.4002 36.6327 77.0256C36.5105 76.527 36.2986 75.8582 35.997 75.0192C35.5169 73.6474 35.4137 72.7358 35.6874 72.2843C35.7328 72.2732 35.5875 71.8764 35.2517 71.0938L34.6521 68.6462C34.4745 67.921 34.4397 66.8965 34.5479 65.5727C34.4488 64.9724 34.5265 64.1125 34.7808 62.9932L34.9043 62.0261C34.8173 61.2787 35.0193 60.4364 35.5105 59.4993L36.2305 58.0257L36.7133 56.466C37.0796 55.6075 37.6771 54.9086 38.5059 54.3693ZM55.3761 75.6773C54.7938 69.5739 54.4805 66.4316 54.4361 66.2503L54.3097 64.2633C54.4124 64.094 54.2306 63.0575 53.7642 61.1538L53.4311 59.794L53.2174 58.3329C52.8482 57.4143 52.597 56.6831 52.4638 56.1392C52.0715 55.3224 51.9512 54.439 52.1029 53.4889C52.5607 52.4159 53.6499 51.8608 55.3705 51.8237C56.0042 51.8606 56.592 52.0049 57.1341 52.2565C57.8242 52.3277 58.333 52.4433 58.6605 52.6033C59.0564 52.6504 59.4431 53.4446 59.8206 54.9857C60.2313 54.3085 61.2826 53.4024 62.9744 52.2672C63.2464 52.2006 63.7907 51.9712 64.6075 51.5789C65.4132 51.1413 66.1107 50.8504 66.6999 50.706C67.2892 50.5617 67.7591 50.5186 68.1097 50.5769C69.1495 50.8987 69.7369 51.1392 69.8719 51.2983C69.9959 51.4121 70.1421 51.6165 70.3104 51.9116C70.5241 52.1956 70.6083 52.3431 70.563 52.3542C71.0709 52.6622 71.2952 53.0877 71.2361 53.6307C70.9725 54.3199 70.4212 54.8153 69.5822 55.1169C68.7663 55.3168 67.3917 56.3742 65.4585 58.2891L63.6686 59.8086C62.2007 61.4655 61.3927 62.3841 61.2447 62.5645C62.8613 72.4985 63.684 78.0144 63.7128 79.1125C63.6767 79.5537 63.4594 80.0394 63.0607 80.5695C62.662 81.0995 62.0335 81.1814 61.175 80.8152L60.1399 80.7084C59.2916 80.5799 58.4785 80.2025 57.7005 79.5763L56.6181 78.6883L55.927 77.6324C55.8604 77.3604 55.7711 77.094 55.6592 76.8332L55.3761 75.6773ZM81.3969 53.0155C80.6355 51.2802 79.5462 50.6582 78.1291 51.1495C77.3243 51.3946 76.755 52.1107 76.4211 53.2975C75.9939 55.0838 76.1365 57.235 76.8489 59.7511C77.5955 62.2107 78.221 63.9794 78.7252 65.057C79.2636 66.0782 79.9501 66.9191 80.7845 67.5795C81.3025 68.1252 81.9186 68.2866 82.6328 68.0636C83.9019 67.7528 84.5702 66.46 84.6376 64.1853L84.7818 62.4203C84.9529 62.1381 84.9427 61.9004 84.7512 61.7071C84.9269 60.4629 84.8486 59.0647 84.5165 57.5125C83.9855 57.3062 83.6413 57.0782 83.4841 56.8285C83.0234 56.1245 82.7597 55.6366 82.6931 55.3646C82.3203 55.2157 82.0335 54.8295 81.8327 54.2061C81.6319 53.5826 81.4867 53.1857 81.3969 53.0155ZM70.5203 62.4544L69.9429 58.9203C69.4941 55.7151 69.7908 52.8076 70.8332 50.198C71.9191 47.9621 73.8616 46.4773 76.6607 45.7436L77.0687 45.6437C79.6976 44.9997 81.7401 45.0999 83.1962 45.9444C84.7096 46.6307 85.9053 47.4909 86.7832 48.5251C87.7065 49.5481 88.3254 50.3094 88.6399 50.8089C88.9545 51.3084 89.2621 52.0739 89.5628 53.1053C90.1309 55.0321 90.0176 56.237 89.223 56.7199C90.9124 60.8705 91.3654 64.387 90.5821 67.2695C90.3842 68.423 90.0045 69.7172 89.4431 71.152C89.0084 72.1233 87.9863 72.8541 86.3767 73.3445C84.745 73.7442 83.295 74.0033 82.0267 74.1218C80.8038 74.2292 79.3506 73.9846 77.667 73.388C75.9722 72.7461 74.5582 71.3869 73.4249 69.3102C72.2685 67.3353 71.3003 65.05 70.5203 62.4544ZM87.7895 34.1529L87.2828 30.0249L86.8345 27.9006C86.6901 27.3114 86.6924 26.8303 86.8413 26.4575L87.2881 25.3391C88.2787 24.0875 88.9387 23.3493 89.268 23.1245C89.5973 22.8996 90.1241 22.7946 90.8484 22.8094C91.6069 22.7677 92.0709 22.7982 92.2401 22.9009L93.1379 23.3296C93.6014 23.4563 93.8942 23.7689 94.0163 24.2675C94.3096 24.484 94.4275 24.6713 94.3702 24.8295C94.1759 25.2134 94.3778 27.9987 94.9756 33.1854L96.6968 42.5652L96.8065 44.4842C96.9508 45.0735 97.0568 45.4079 97.1243 45.4874L97.4241 46.7112C97.5555 47.64 97.6036 48.2288 97.5685 48.4776C97.624 48.7042 97.6398 48.9646 97.6157 49.2588C97.7286 49.3272 97.8627 49.6788 98.0182 50.3133C98.1625 50.9026 98.1834 51.2818 98.0807 51.4511C98.1677 52.1986 98.2945 52.9122 98.461 53.5921C98.6165 54.2267 98.8283 54.8955 99.0966 55.5985C99.3992 56.2451 99.611 56.9139 99.7323 57.6049L100.637 60.1219L100.887 61.1417C101.177 61.9354 101.384 62.5815 101.506 63.0801L102.712 66.5323L103.434 68.3014C103.758 69.0387 103.873 69.8032 103.779 70.5951C103.73 71.3758 103.479 71.9179 103.024 72.2213C101.764 73.1548 100.128 73.147 98.118 72.198L97.5741 72.3313C97.168 72.0464 96.7965 71.6089 96.4598 71.0187C96.0527 70.9262 95.8164 70.6478 95.7507 70.1834C95.685 69.7191 95.4944 69.3333 95.1789 69.0262C94.8635 68.7191 94.6724 68.4296 94.6058 68.1576C94.4615 67.5684 94.2885 67.0583 94.0868 66.6272L94.0215 66.0666C93.8522 65.9639 93.7343 65.7766 93.6677 65.5047L93.2319 64.3142L93.0987 63.7702C93.0098 63.4076 92.9261 63.1639 92.8475 63.039C92.8142 62.903 92.8266 62.6597 92.8849 62.3092C92.7045 62.1612 92.5208 61.5095 92.3339 60.3541C91.7509 56.7973 91.2984 54.3617 90.9764 53.0472L90.6447 51.3988L90.1617 49.4271C89.9406 48.3282 89.6246 46.9402 89.2138 45.2631C88.8483 43.5749 88.7169 42.6462 88.8195 42.4769L88.6017 41.8816C88.3352 40.7938 88.133 39.2818 87.995 37.3457C87.8913 35.3532 87.8228 34.2889 87.7895 34.1529ZM98.2884 32.518C98.3245 32.0768 98.2754 31.6804 98.1413 31.3289C98.0071 30.9774 97.8077 30.0653 97.543 28.5926C97.6698 28.1292 97.4981 27.3304 97.0281 26.1963C96.8616 25.5164 96.9614 24.7473 97.3277 23.8888C97.6829 22.985 98.1333 22.2741 98.6791 21.756L98.6957 21.824C98.8326 21.5983 99.2072 21.3624 99.8196 21.1163C101.305 20.5121 102.532 20.716 103.501 21.728C103.397 22.0897 103.556 23.1317 103.978 24.8542L105.677 31.7891C106 32.9112 106.4 34.4467 106.878 36.3958L107.511 38.9794L108.865 43.3321C109.154 44.5106 109.51 45.6724 109.935 46.8176C110.468 48.9933 110.835 50.2967 111.037 50.7277C111.239 51.1588 111.362 51.465 111.406 51.6463L111.673 52.7341C111.917 53.7313 112.14 54.4454 112.342 54.8765C112.453 55.3297 112.683 55.7779 113.031 56.221C112.971 56.9564 113.16 57.7269 113.598 58.5326C113.957 59.021 114.198 59.7069 114.318 60.5904C114.723 61.0677 114.991 61.7707 115.123 62.6994L115.427 63.0574L115.713 63.636C116.038 64.1808 116.12 64.9056 115.957 65.8103C115.828 66.6586 115.276 67.3464 114.3 67.8737C113.381 68.4353 112.131 68.2369 110.551 67.2786C110.472 67.1538 110.173 67.0109 109.653 66.8499C109.032 66.6659 108.317 65.7118 107.511 63.9875C107.173 63.5898 106.943 63.1416 106.821 62.643C106.222 62.3572 105.823 61.8064 105.623 60.9905L105.257 59.4947C105.045 58.8259 104.843 58.3948 104.652 58.2015C104.472 58.0535 104.242 57.6054 103.962 56.857L102.982 52.2684C102.616 50.7726 102.287 49.6279 101.997 48.8342L100.864 44.2109C100.362 42.7484 100.016 41.6319 99.8277 40.8614C99.6278 40.0455 99.3923 38.3975 99.1211 35.9175C99.0767 35.7362 98.9477 35.5036 98.734 35.2196C98.7034 34.5064 98.5549 33.6059 98.2884 32.518Z" fill="white"/>
<path d="M6.99674 107.295C6.97355 106.645 7.27872 106.084 7.91225 105.611C7.91046 105.561 7.90868 105.511 7.90689 105.461C7.89441 105.112 8.24687 104.474 8.96428 103.547C9.73166 102.619 10.1617 102.054 10.2545 101.85C11.3307 101.161 12.0418 100.761 12.388 100.648C12.7913 100.734 13.0679 100.774 13.2179 100.769L13.3678 100.764C14.8043 100.362 16.4551 100.353 18.32 100.737C20.2348 101.119 21.5875 101.871 22.3781 102.994C22.8046 103.729 23.24 104.714 23.6843 105.949C24.3464 107.676 24.6917 108.94 24.7202 109.739C25.0664 111.028 25.1342 112.226 24.9236 113.334L24.8754 114.086C24.8826 114.286 24.7648 114.491 24.5221 114.699C24.2794 114.908 23.9831 115.019 23.6334 115.031C23.3318 114.992 23.0614 115.127 22.8223 115.436C22.5813 115.694 22.0611 115.838 21.2616 115.867C20.5121 115.893 20.1043 115.683 20.0383 115.235C19.8866 115.19 19.6305 115.024 19.2701 114.737C18.9596 114.448 18.8016 114.228 18.7963 114.078L18.4028 113.567C18.3992 113.467 18.2939 113.321 18.0869 113.128C17.6051 112.245 17.4052 111.551 17.4873 111.048C17.6908 109.74 17.7408 109.038 17.6373 108.941C17.6105 108.192 17.3339 107.451 16.8075 106.72C16.7557 106.671 16.6549 106.65 16.505 106.655C16.4032 106.609 16.2516 106.564 16.0499 106.522C15.9375 106.175 15.8313 106.004 15.7314 106.008C15.3852 106.12 15.0202 106.408 14.6365 106.872C14.0065 108.846 13.6282 110.16 13.5015 110.815L13.215 115.403L13.3381 118.851C13.5022 120.646 13.7414 121.739 14.0554 122.128C14.0626 122.328 14.175 122.674 14.3927 123.166C14.4659 123.814 15.0316 124.945 16.0898 126.558L16.4806 126.994C16.7554 127.685 17.1927 128.019 17.7923 127.998C18.3919 127.977 19.2164 127.247 20.2657 125.808C20.2104 125.66 20.5138 125.049 21.1759 123.975C21.8415 123 22.9275 122.586 24.4336 122.733C25.0868 122.809 25.425 123.173 25.4482 123.822C25.5142 124.27 25.4044 125.4 25.1189 127.211C24.637 127.729 24.405 128.237 24.4229 128.737C24.1052 129.649 23.9481 130.155 23.9517 130.255C23.8018 130.26 23.6546 130.34 23.51 130.496L23.162 131.259C22.9622 131.266 22.8408 131.37 22.798 131.572C22.2715 132.241 21.9083 132.579 21.7085 132.586C21.5639 132.741 21.1668 132.831 20.5173 132.854C19.5821 133.288 18.8897 133.512 18.44 133.528L17.1685 133.649L16.3333 133.379L15.6561 133.328C15.0475 133.099 14.5684 132.991 14.2186 133.004C13.9206 133.064 13.6948 133.047 13.5413 132.953C13.3897 132.908 13.1853 132.79 12.9284 132.6C12.3109 132.121 11.9022 131.886 11.7024 131.893C11.5525 131.898 11.2723 131.758 10.8618 131.473C10.4585 131.387 10.1275 131.224 9.86871 130.983L9.54215 130.244C9.6296 129.89 9.57249 129.692 9.37083 129.65C8.72125 129.673 8.34203 129.561 8.23317 129.315L7.76205 128.731C7.74778 128.332 7.52917 127.814 7.10624 127.179L6.11048 124.513C6.00697 124.416 6.00073 124.241 6.09175 123.988L6.04358 122.639L4.93543 116.825L4.89797 115.775C5.28881 114.11 5.48334 113.253 5.48156 113.203C5.39234 112.105 5.6074 111.122 6.12672 110.253C6.09282 109.304 6.38283 108.318 6.99674 107.295ZM39.8816 109.048C39.4604 107.062 38.4531 106.172 36.8594 106.379C35.9618 106.461 35.2087 107.088 34.6001 108.261C33.7631 110.042 33.4446 112.33 33.6444 115.124C33.8924 117.867 34.1637 119.859 34.4581 121.099C34.8007 122.288 35.3379 123.319 36.0695 124.194C36.4943 124.879 37.1055 125.182 37.9032 125.104C39.3023 125.054 40.2847 123.843 40.8505 121.471L41.3858 119.651C41.6268 119.392 41.6678 119.141 41.509 118.896C41.9641 117.629 42.1863 116.145 42.1756 114.444C41.6634 114.113 41.352 113.798 41.2414 113.502C40.9112 112.663 40.7408 112.094 40.7301 111.794C40.3714 111.557 40.1546 111.089 40.0797 110.392C40.0047 109.694 39.9387 109.246 39.8816 109.048ZM26.4169 116.583L26.5802 112.75C26.8069 109.289 27.751 106.304 29.4124 103.793C31.0382 101.684 33.3992 100.549 36.4955 100.388L36.9452 100.372C39.8433 100.269 41.9643 100.818 43.3081 102.021C44.7464 103.07 45.8136 104.233 46.5095 105.509C47.2555 106.783 47.7391 107.717 47.9604 108.309C48.1816 108.902 48.3378 109.772 48.4288 110.919C48.6054 113.064 48.2244 114.304 47.2857 114.637C48.1547 119.359 47.8647 123.147 46.4156 126.001C45.9569 127.168 45.277 128.443 44.3758 129.826C43.7083 130.75 42.477 131.294 40.6817 131.459C38.8828 131.523 37.3053 131.479 35.949 131.327C34.6427 131.174 33.1713 130.601 31.5349 129.609C29.8966 128.567 28.709 126.833 27.972 124.408C27.1886 122.084 26.6702 119.476 26.4169 116.583ZM50.2108 123.388C50.2036 123.189 50.2268 122.437 50.2804 121.135C49.8592 120.549 49.6112 119.207 49.5363 117.109C49.2954 111.764 49.1732 109.041 49.1696 108.941C49.216 108.84 49.1598 108.667 49.001 108.422C48.8404 108.128 48.7547 107.83 48.744 107.531L48.7146 106.706C48.4559 105.064 48.5112 103.812 48.8806 102.948C48.9627 102.445 49.2241 102.06 49.6649 101.794C49.9969 101.282 50.4876 101.014 51.1372 100.991C51.7868 100.968 52.3391 101.023 52.7942 101.157C53.1386 100.995 53.4706 101.183 53.79 101.722C54.3985 101.95 54.7278 102.064 54.7778 102.062L55.1632 102.348C55.563 102.334 55.8155 102.4 55.9208 102.546C56.0742 102.641 56.1849 102.937 56.2527 103.435L57.1601 109.932L57.2056 111.206C57.3269 111.802 57.3938 112.275 57.4063 112.625L57.607 116.145L57.9095 116.209C58.1665 114.999 58.4556 113.988 58.7768 113.176C59.1463 112.313 59.3738 111.679 59.4595 111.276C59.4952 110.874 59.6567 110.493 59.944 110.133C60.2224 109.522 60.3571 109.092 60.3482 108.842C60.3393 108.593 60.5276 108.261 60.9131 107.847C61.3235 106.731 61.7197 105.917 62.1016 105.403L62.3051 104.795C62.4942 104.488 62.6352 104.233 62.728 104.03C63.2616 103.56 63.6471 103.146 63.8844 102.787L64.468 102.316C64.5679 102.313 64.6634 102.184 64.7544 101.931C64.8437 101.628 65.487 101.429 66.6845 101.337C67.6285 101.153 68.428 101.124 69.0829 101.251C69.5326 101.235 69.8084 101.25 69.9101 101.297L70.3758 101.73L70.9808 101.859C71.8463 102.278 72.4343 103.333 72.7448 105.023C72.8661 108.421 73.0713 110.665 73.3604 111.755C73.8119 114.591 74.4775 117.119 75.3573 119.339C76.287 121.557 77.165 123.027 77.9913 123.748C79.0888 125.059 79.3395 126.476 78.7434 127.998C78.3204 128.764 77.7601 129.184 77.0623 129.259C76.3645 129.334 75.864 129.327 75.5606 129.238C75.1608 129.252 74.8334 129.189 74.5782 129.048C74.0339 129.217 73.5547 129.109 73.1407 128.724C72.691 128.74 72.3332 128.527 72.0673 128.087C70.2363 125.851 69.1612 124.463 68.8417 123.924C68.5723 123.383 68.359 123.016 68.202 122.821C68.0949 122.625 68.0137 122.453 67.9584 122.305C67.9031 122.156 67.8201 121.934 67.7094 121.638C67.5934 121.192 67.3793 120.799 67.067 120.46C66.8029 120.069 66.6673 119.774 66.6601 119.574C66.5013 119.33 66.3871 118.933 66.3175 118.386C66.0106 118.196 65.8517 117.952 65.841 117.652C65.5858 117.511 65.3949 117.068 65.2682 116.322L64.8988 114.384L64.7462 114.314C62.3602 117.551 61.0637 121.175 60.8566 125.185C60.7924 126.188 60.7156 126.841 60.6264 127.144C60.3908 127.553 60.5131 128.174 60.9931 129.007L61.0091 129.457C61.0163 129.657 60.7548 130.041 60.2248 130.611C59.627 130.682 59.2781 130.72 59.1782 130.723L58.3537 130.753C58.2537 130.756 58.0565 130.838 57.7621 130.999C57.4623 131.01 57.2142 131.068 57.0179 131.176C56.8216 131.283 56.5459 131.267 56.1908 131.13C55.2896 131.112 54.7622 131.056 54.6087 130.961C54.4571 130.917 54.2295 130.85 53.9261 130.761C53.6246 130.721 53.3694 130.58 53.1606 130.338C52.9107 130.347 52.7305 130.203 52.6198 129.907C51.2743 128.654 50.5855 127.578 50.5533 126.678L50.5346 126.154L50.4383 125.557C50.5097 124.754 50.4338 124.031 50.2108 123.388ZM73.5848 100.565C73.4081 99.8208 73.293 99.3996 73.2395 99.3015C72.9718 98.8107 72.8308 98.3655 72.8165 97.9657C72.8023 97.566 72.7701 97.367 72.7202 97.3688C72.7791 96.2159 73.1985 95.3504 73.9783 94.7722C74.7564 94.1441 75.8753 93.954 77.3351 94.2021L79.7657 95.0159L83.2429 95.7173L84.7902 90.7089C85.2114 89.8933 85.4166 89.3357 85.4059 89.0358C85.4452 88.7343 85.5335 88.4059 85.671 88.0508C85.8459 87.3441 86.027 86.8123 86.2144 86.4554L86.4714 85.2454C86.798 84.5833 87.4824 84.1336 88.5245 83.8963C89.1152 83.6251 89.6399 83.6063 90.0985 83.8401C91.4495 83.8419 92.4917 84.305 93.2251 85.2294C93.234 85.4793 93.1733 85.8817 93.0431 86.4367C92.9128 86.9917 92.8137 87.7207 92.7459 88.6237L91.1397 96.1858L91.7393 96.1644L93.6104 96.0226C93.8621 96.0636 94.1378 96.0788 94.4376 96.0681C95.528 95.779 96.3721 95.5988 96.9699 95.5274C97.566 95.406 97.963 95.3168 98.1611 95.2597C98.3128 95.3043 98.7375 95.2892 99.4353 95.2142C100.133 95.1393 100.866 95.3383 101.633 95.8112C102.399 96.2342 102.794 96.7954 102.819 97.495C102.842 98.1445 102.388 98.7361 101.456 99.2697L100.814 100.193C100.025 100.522 99.338 100.896 98.7526 101.317C98.0673 101.742 95.2183 102.519 90.2054 103.649L89.8172 107.49C89.926 107.736 89.9831 107.935 89.9885 108.084C89.7154 110.246 89.5111 112.93 89.3754 116.136C89.4664 117.284 89.519 118.058 89.5333 118.457L89.6055 120.481C89.5591 120.583 89.5457 120.908 89.5654 121.458C89.61 122.707 89.8125 124.176 90.173 125.864C90.5316 127.502 90.7422 128.496 90.8047 128.844C90.8671 129.192 90.9064 129.59 90.9224 130.04C90.9028 130.891 90.5726 131.454 89.932 131.727C88.333 131.784 86.974 131.557 85.8551 131.047C84.9503 130.929 84.5435 130.743 84.6345 130.49C84.2758 130.252 83.8591 129.792 83.3844 129.108C83.3701 128.709 83.3371 128.485 83.2854 128.437C82.9302 128.299 82.7411 127.906 82.7179 127.256C82.6661 127.208 82.6099 127.035 82.5492 126.737L81.9577 124.882C81.4866 124.298 81.3081 123.504 81.4223 122.499C81.4152 122.299 81.3313 122.052 81.1707 121.758L81.152 121.233C81.1377 120.833 81.152 120.533 81.1948 120.331C80.895 118.941 80.8612 117.291 81.0932 115.381C81.3234 113.422 81.4733 112.016 81.5429 111.163C81.4341 110.916 81.4725 110.59 81.6581 110.183C81.642 109.733 81.717 109.03 81.8829 108.074L82.405 103.777C82.1016 103.688 81.8 103.649 81.5002 103.66C78.8305 103.154 77.443 102.829 77.3377 102.682L76.4195 102.19C76.0698 102.202 75.5638 102.045 74.9018 101.719C74.2379 101.342 73.7989 100.958 73.5848 100.565ZM99.9988 80.4847C100.047 80.433 100.519 80.3411 101.415 80.209C102.855 79.9075 103.858 79.9717 104.424 80.4018C105.038 80.7802 105.478 81.2147 105.746 81.7055C105.903 83.3009 105.752 85.3826 105.294 87.9506C104.803 89.6192 104.372 90.8603 104.001 91.6741L103.291 92.8251C103.156 93.2302 102.846 93.6666 102.362 94.1341C101.879 94.6017 101.512 94.8399 101.262 94.8488C101.06 94.806 100.679 94.6445 100.119 94.3643C99.6069 94.0324 99.2982 93.7932 99.1929 93.6469C99.1376 93.4988 99.0814 93.3257 99.0243 93.1276L98.596 91.6419L97.03 89.8216C96.7088 89.2327 96.5375 88.6384 96.5161 88.0388C96.3163 86.6451 96.4528 85.5645 96.9257 84.7971C96.9221 84.6972 96.9882 84.4447 97.1238 84.0396C97.3344 82.9314 98.2927 81.7464 99.9988 80.4847ZM98.9517 114.219C98.9357 113.769 98.9892 113.167 99.1124 112.412C99.2837 111.605 99.314 111.054 99.2034 110.757C99.1427 110.459 99.1124 109.61 99.1124 108.209C99.2409 107.604 99.2418 106.929 99.1151 106.183C98.7261 105.096 98.5976 104.3 98.7297 103.795C98.8617 103.29 99.1669 102.729 99.6452 102.111C100.122 101.444 100.655 100.974 101.246 100.703C101.837 100.432 102.737 100.425 103.947 100.682C104.252 100.821 104.77 101.303 105.499 102.127C105.655 102.272 105.85 102.84 106.086 103.832C106.371 104.823 106.56 105.917 106.653 107.114C106.794 108.26 106.93 109.956 107.06 112.203C107.188 114.4 107.395 117.369 107.678 121.112C107.96 124.804 108.067 127.102 107.999 128.005C107.981 128.906 107.681 129.592 107.097 130.063C106.565 130.582 106.069 130.7 105.609 130.416C105.2 130.181 104.769 130.021 104.316 129.937C103.516 129.966 102.805 129.666 102.183 129.038C101.981 128.995 101.498 128.787 100.734 128.414C99.9688 127.991 99.4655 127.209 99.2246 126.066C98.9569 125.576 98.824 123.954 98.8258 121.203L98.7295 118.504L99.0133 115.942L98.9517 114.219ZM126.033 125.334L125.538 124.076L124.534 119.084C124.25 118.143 124.095 117.298 124.068 116.549L124.25 113.24C124.23 112.691 124.245 112.39 124.293 112.338C123.693 112.36 122.82 113.116 121.672 114.608C121.578 114.762 121.437 115.017 121.249 115.374C119.27 118.797 118.165 122.864 117.933 127.575C117.563 128.439 117.054 128.882 116.404 128.905C115.044 128.654 114.289 128.53 114.139 128.536L113.617 128.63L112.643 128.664C111.49 128.605 110.725 128.182 110.346 127.395C110.138 127.153 110.014 126.507 109.977 125.457L109.939 124.408L109.567 120.294L109.348 114.148C109.323 113.448 109.242 112.575 109.104 111.53C108.963 110.384 108.874 108.586 108.837 106.136C108.798 103.636 108.725 102.312 108.62 102.166C108.513 101.97 108.454 101.722 108.443 101.422C108.433 101.122 108.497 100.819 108.636 100.514C108.775 100.209 109.438 99.8603 110.625 99.4677C111.26 99.0448 111.803 98.8253 112.253 98.8092C112.957 98.9341 113.868 99.2018 114.983 99.6123C115.738 99.7355 116.138 100.447 116.185 101.746C116.362 103.891 116.417 105.44 116.351 106.393C116.335 107.344 116.428 109.267 116.632 112.161C120.076 104.934 123.221 100.544 126.068 98.9914C126.309 98.7327 126.679 98.5944 127.179 98.5765C127.678 98.5587 128.262 98.788 128.929 99.2645C129.597 99.741 130.058 100.05 130.313 100.191C130.569 100.332 130.852 100.572 131.165 100.911C131.527 101.248 131.81 101.463 132.013 101.556C132.648 102.534 132.857 104.878 132.639 108.588C132.609 109.139 132.577 109.641 132.543 110.092C132.507 110.494 132.515 111.394 132.564 112.793C132.614 114.193 132.674 115.166 132.744 115.714C132.956 117.457 133.068 118.479 133.078 118.779L133.555 121.614C134.096 122.745 134.377 123.636 134.401 124.285C134.472 124.883 134.957 125.841 135.854 127.16C136.231 127.897 136.102 128.502 135.469 128.975C134.487 129.51 133.945 129.73 133.841 129.634C133.789 129.585 133.516 129.645 133.022 129.813C132.529 130.031 131.632 130.113 130.329 130.059C129.674 129.932 129.01 129.556 128.337 128.929L127.173 127.845C126.752 127.26 126.454 126.62 126.279 125.926C126.02 125.685 125.938 125.488 126.033 125.334ZM149.328 117.073C149.321 116.873 149.365 116.696 149.459 116.543C149.604 116.388 149.794 116.106 150.029 115.697C150.017 115.347 150.222 114.089 150.645 111.923C151.032 110.158 151.51 108.114 152.077 105.793C152.222 105.637 152.287 105.36 152.273 104.96L152.896 101.411C152.852 100.162 153.15 99.4004 153.791 99.1274C154.272 98.6099 154.968 98.46 155.876 98.6777C156.784 98.8954 157.728 99.4121 158.708 100.228C158.911 100.32 159.113 100.363 159.313 100.356L160.394 101.218C160.302 101.422 160.288 102.448 160.354 104.296C160.418 106.095 160.483 107.194 160.547 107.592L160.592 108.866C160.616 109.515 160.656 109.939 160.713 110.137L160.745 111.037L160.721 112.464C160.956 113.456 161.033 114.904 160.951 116.808L161.034 119.132C160.989 119.283 160.998 119.533 161.061 119.881C161.121 120.179 161.183 120.502 161.245 120.85C161.199 120.952 161.181 121.153 161.192 121.453L161.213 122.052C161.335 122.648 161.374 123.047 161.331 123.249L161.561 125.492C161.782 126.084 161.987 126.903 162.174 127.947C162.133 128.198 162.15 128.673 162.225 129.371C161.997 129.979 161.433 130.3 160.533 130.332C159.63 130.264 158.946 130.013 158.48 129.579C158.228 129.538 157.898 129.4 157.49 129.165C157.34 129.17 157.112 129.103 156.807 128.964C156.546 128.673 156.29 128.482 156.036 128.391C154.528 126.794 153.611 124.925 153.284 122.786C153.181 122.689 153.126 122.566 153.121 122.416C152.757 123.43 151.868 125.163 150.455 127.615C149.977 128.232 149.643 128.694 149.454 129.001C149.266 129.358 149.124 129.588 149.028 129.692C148.703 130.404 147.657 130.516 145.888 130.029C145.13 129.806 144.65 129.698 144.451 129.705L142.103 129.113C141.086 128.649 140.188 128.031 139.41 127.258C139.21 127.266 138.982 127.174 138.725 126.983C138.466 126.742 138.308 126.522 138.251 126.324L137.301 124.932C136.682 124.404 136.152 123.572 135.711 122.437C135.639 121.839 135.546 121.317 135.43 120.871L135.414 120.422L135.32 119.9L135.403 118.02L135.93 113.874C136.123 113.667 136.21 113.289 136.19 112.739L136.364 111.307C136.601 110.948 136.711 110.519 136.693 110.019C136.788 109.866 136.85 109.513 136.881 108.962C137.023 108.757 137.089 108.479 137.076 108.129C137.114 107.778 137.241 107.148 137.459 106.24C137.737 105.629 137.858 104.799 137.82 103.75C137.781 102.651 137.936 101.394 138.286 99.9811C139.237 98.5963 140.699 98.1939 142.671 98.7739C143.021 98.7614 143.554 98.9925 144.272 99.4672C145.037 99.8902 145.598 100.17 145.953 100.308C146.367 100.693 146.627 100.984 146.734 101.18C146.542 101.387 146.426 101.667 146.389 102.018C145.077 107.318 144.327 111.523 144.138 114.632C144.107 115.183 144.007 115.887 143.838 116.744C143.718 117.599 143.6 118.478 143.482 119.383C143.168 121.796 143.687 123.028 145.04 123.08C145.541 123.112 146.012 122.995 146.453 122.729C146.894 122.463 147.132 122.13 147.168 121.728C148.471 118.98 149.191 117.428 149.328 117.073ZM177.784 102.248C177.957 101.492 177.898 100.543 177.607 99.4028C177.247 99.1155 176.766 98.9825 176.167 99.0039C175.417 99.0307 174.768 99.7543 174.218 101.175C173.461 102.403 172.909 103.748 172.561 105.212L172.486 105.214C172.011 107.333 171.777 108.467 171.782 108.617C172.589 108.788 173.242 108.865 173.741 108.847C174.239 108.779 174.804 108.484 175.436 107.961C176.546 106.82 177.329 104.916 177.784 102.248ZM177.944 113.049L175.179 113.373C173.63 113.429 172.4 113.322 171.49 113.055L171.766 114.471C172.064 118.613 173.31 121.295 175.505 122.518C176.114 122.746 176.618 122.853 177.018 122.839C177.418 122.824 177.935 122.606 178.57 122.183C178.763 121.976 178.928 121.695 179.066 121.34C179.1 120.888 179.342 120.679 179.794 120.713C181.75 118.042 183.262 116.962 184.331 117.474C185.405 118.137 185.95 118.667 185.964 119.067C185.971 119.267 185.854 119.496 185.613 119.755L185.629 120.205C185.647 120.705 185.354 121.616 184.751 122.938C184.198 124.258 183.588 125.381 182.92 126.305C182.597 127.067 182.166 127.608 181.627 127.928C180.064 128.984 178.379 129.444 176.573 129.309C176.172 129.273 175.893 129.183 175.738 129.038C175.335 128.953 175.034 128.938 174.836 128.996L174.234 128.942C173.784 128.958 173.406 128.871 173.099 128.682C172.588 128.4 172.233 128.263 172.033 128.27C170.716 127.817 169.904 127.471 169.595 127.231C169.336 126.99 169.105 126.824 168.901 126.731C168.698 126.638 168.205 126.13 167.421 125.208C166.752 124.681 166.365 124.345 166.259 124.198C165.944 123.759 165.657 123.444 165.4 123.254C165.193 123.061 165.052 122.616 164.977 121.918C164.768 121.675 164.657 121.354 164.643 120.954L164.321 120.365C164.309 120.015 164.149 119.746 163.842 119.557C163.532 119.268 163.368 118.898 163.352 118.449L163.331 117.849C163.128 117.756 163.067 117.458 163.149 116.955L163.079 115.006L162.98 114.334L162.962 113.81C162.905 113.611 162.939 113.185 163.066 112.53L162.967 111.858C163.015 111.806 163.076 111.404 163.149 110.651C163.312 109.594 163.513 108.937 163.754 108.678L163.73 108.003C163.775 107.852 163.792 107.651 163.784 107.401C163.775 107.151 163.815 106.875 163.904 106.571C164.043 106.266 164.403 105.128 164.983 103.156L166.088 100.489C166.411 99.7275 166.932 98.8834 167.649 97.9572C167.69 97.7056 167.874 97.2487 168.201 96.5866L169.143 95.6524C169.427 95.192 169.865 94.8512 170.457 94.6299C171.144 94.2551 171.663 94.0615 172.012 94.049L174.1 93.6743C174.352 93.7153 174.528 93.7341 174.628 93.7305L175.602 93.6957C176.705 93.7564 177.612 93.9491 178.324 94.2739C179.84 94.6701 180.959 95.2055 181.684 95.8801C183.295 97.5737 184.13 99.22 184.187 100.819C184.244 102.418 184.043 103.801 183.584 104.968C182.437 107.861 181.602 109.692 181.079 110.461C180.238 112.142 179.193 113.005 177.944 113.049ZM183.894 122.293C184.026 121.788 184.382 121.25 184.962 120.679C185.59 120.056 186.229 119.733 186.879 119.71C187.528 119.687 188.099 119.566 188.592 119.349C189.084 119.131 189.531 119.015 189.93 119.001C190.38 118.985 191.059 119.085 191.967 119.303C192.924 119.469 193.553 119.572 193.855 119.611C194.206 119.648 194.483 119.689 194.684 119.731C194.936 119.773 195.167 119.939 195.378 120.232C195.638 120.523 195.777 120.893 195.793 121.343C195.163 124.718 194.039 126.884 192.422 127.842L190.187 128.297C189.538 128.321 188.801 127.997 187.976 127.326C186.372 127.233 185.559 126.887 185.537 126.287C185.534 126.187 185.246 125.822 184.673 125.192C184.1 124.562 183.806 124.047 183.792 123.648C183.778 123.248 183.812 122.796 183.894 122.293ZM194.942 72.2921L194.468 77.9376C194.359 80.4931 194.055 85.282 193.555 92.3043C193.055 99.3266 192.851 104.112 192.942 106.66C193.031 109.159 193.239 110.777 193.566 111.516C193.05 112.485 192.367 112.985 191.518 113.015C191.068 113.031 190.691 112.995 190.388 112.905C190.085 112.816 189.883 112.773 189.783 112.777L189.483 112.788L189.181 112.723C187.967 110.966 187.261 109.39 187.061 107.996C186.138 105.978 185.617 104.695 185.498 104.149C185.426 103.551 185.312 103.155 185.155 102.961C184.93 100.867 184.815 99.7459 184.81 99.596L184.697 96.448C184.853 95.1916 184.906 93.8889 184.858 92.5397L184.818 91.4155C184.782 90.4161 184.93 88.9599 185.262 87.0468C185.592 85.0838 185.735 83.4777 185.691 82.2285C185.644 80.9293 185.965 79.4169 186.654 77.6912C187.393 75.9637 187.875 74.7458 188.1 74.0373C188.375 73.327 188.557 72.8202 188.646 72.5168C188.735 72.2135 188.85 71.9342 188.991 71.679C189.227 71.2703 189.545 71.0588 189.944 71.0446C190.683 70.718 191.202 70.5494 191.502 70.5387C193.751 70.4584 194.897 71.0429 194.942 72.2921Z" fill="white"/>
<path d="M129.912 67.5128L129.911 66.9695C129.067 66.9839 128.465 66.9913 128.102 66.9918C127.775 66.948 127.23 66.9289 126.466 66.9343C125.701 66.9397 125.092 66.8876 124.637 66.7777C123.771 66.5934 123.213 65.9315 122.964 64.7922C122.711 63.6131 123.006 62.8353 123.849 62.4587C124.622 62.1705 125.167 62.0086 125.485 61.9728C125.803 61.9371 126.395 61.8303 127.26 61.6524C127.671 61.3648 128.251 61.1586 129.002 61.0339L129.87 60.6948C129.874 60.7346 130.029 60.6769 130.333 60.5219L130.491 59.2363C130.419 58.6003 130.526 57.9442 130.813 57.268C130.781 56.9897 130.953 56.1856 131.326 54.8555C131.308 54.6965 131.536 53.5035 132.011 51.2766C132.147 51.0599 132.692 50.5358 133.645 49.7041C134.245 49.3145 135.164 49.4326 136.402 50.0582C137.069 50.2649 137.549 50.5934 137.841 51.0435C137.629 51.3089 137.573 51.8788 137.671 52.7533C137.663 53.036 137.55 54.538 137.333 57.2593L137.52 58.9288C137.843 58.9328 138.371 58.974 139.104 59.0526C139.877 59.1266 140.792 59.2049 141.847 59.2875C143.88 59.4614 145.221 60.1156 145.872 61.25C146.169 62.1021 146.199 62.7227 145.961 63.1118C145.723 63.5008 145.076 63.8352 144.021 64.1148C143.151 64.2529 142 64.4024 140.569 64.5634C139.178 64.7198 138.155 64.9354 137.502 65.2102C137.503 65.9346 137.526 66.4956 137.571 66.8931L137.612 67.7941C137.643 68.0724 137.629 69.5632 137.571 72.2667C137.373 72.6512 137.382 74.5219 137.598 77.8788L138.088 82.2313C138.168 82.9468 138.304 83.6158 138.495 84.2384C138.633 85.1084 138.802 85.7134 139.001 86.0532C139.041 86.411 139.225 87.1551 139.554 88.2854C139.206 89.4918 138.476 90.1576 137.363 90.2827C136.29 90.4034 135.291 90.1132 134.367 89.4121L133.604 88.5319C133.449 88.2273 133.325 88.0198 133.232 87.9095C133.179 87.7948 133.124 87.6601 133.066 87.5056C132.698 86.7419 132.424 86.2696 132.242 86.0887C131.968 85.7976 131.822 85.5725 131.804 85.4135C131.786 85.2545 131.764 85.0557 131.737 84.8172C131.582 84.1504 131.417 83.5852 131.245 83.1217C131.023 82.9453 130.848 82.2807 130.718 81.128C130.561 79.0123 130.425 77.7999 130.309 77.4909C130.415 77.3582 130.35 76.6008 130.114 75.2185L130.146 73.8866C130.128 73.7276 130.14 73.1224 130.183 72.0711C130.086 71.921 130.019 71.5059 129.983 70.8257C129.942 70.1057 129.946 69.6021 129.994 69.3149C130.02 68.829 129.992 68.2283 129.912 67.5128ZM153.115 68.4054C152.658 66.8467 151.8 66.1985 150.542 66.4608C149.83 66.581 149.268 67.1273 148.854 68.0996C148.295 69.5713 148.18 71.4157 148.51 73.6327C148.875 75.8055 149.213 77.3776 149.524 78.349C149.869 79.2762 150.361 80.0662 150.998 80.7191C151.378 81.2399 151.884 81.4446 152.516 81.3333C153.629 81.2082 154.339 80.1824 154.645 78.2561L154.961 76.7715C155.138 76.5504 155.155 76.3471 155.014 76.1618C155.299 75.1234 155.386 73.9262 155.274 72.5702C154.845 72.3367 154.578 72.1051 154.471 71.8756C154.157 71.2266 153.986 70.7829 153.959 70.5444C153.659 70.377 153.457 70.0172 153.355 69.4652C153.253 68.9132 153.173 68.5599 153.115 68.4054ZM142.834 75.2371L142.731 72.1695C142.7 69.3955 143.271 66.9564 144.444 64.8522C145.612 63.0705 147.426 62.0212 149.886 61.7043L150.244 61.6641C152.549 61.4048 154.274 61.7139 155.42 62.5914C156.631 63.3407 157.553 64.2031 158.186 65.1785C158.859 66.1494 159.301 66.8644 159.514 67.3235C159.727 67.7826 159.904 68.4671 160.047 69.3768C160.319 71.0771 160.09 72.089 159.362 72.4124C160.343 76.126 160.343 79.1651 159.361 81.5296C159.066 82.4886 158.601 83.5471 157.967 84.7053C157.491 85.4834 156.542 85.9926 155.12 86.233C153.689 86.3939 152.428 86.4553 151.337 86.417C150.285 86.3742 149.077 86.0069 147.711 85.3152C146.34 84.5838 145.287 83.2733 144.552 81.3837C143.785 79.578 143.213 77.5292 142.834 75.2371Z" fill="white"/>
</svg>
