<svg width="576" height="242" viewBox="0 0 576 242" fill="none" xmlns="http://www.w3.org/2000/svg">
<path d="M201.6 0.559986V238H132.8V223.6C122.347 235.333 106.347 241.2 84.8 241.2C69.44 241.2 55.2533 237.573 42.24 230.32C29.44 222.853 19.2 212.187 11.52 198.32C4.05333 184.453 0.32 168.453 0.32 150.32C0.32 132.187 4.05333 116.293 11.52 102.64C19.2 88.7733 29.44 78.2133 42.24 70.96C55.2533 63.4933 69.44 59.76 84.8 59.76C104.213 59.76 119.04 64.7733 129.28 74.8V0.559986H201.6ZM102.08 184.88C110.4 184.88 117.227 181.893 122.56 175.92C127.893 169.733 130.56 161.2 130.56 150.32C130.56 139.44 127.893 131.013 122.56 125.04C117.227 119.067 110.4 116.08 102.08 116.08C93.76 116.08 86.9333 119.067 81.6 125.04C76.2667 131.013 73.6 139.44 73.6 150.32C73.6 161.2 76.2667 169.733 81.6 175.92C86.9333 181.893 93.76 184.88 102.08 184.88ZM362.905 59.76C384.025 59.76 400.878 66.2667 413.465 79.28C426.265 92.2933 432.665 111.92 432.665 138.16V238H360.345V150.64C360.345 130.587 353.838 120.56 340.825 120.56C333.998 120.56 328.452 123.12 324.185 128.24C320.132 133.36 318.105 141.467 318.105 152.56V238H245.785V150.64C245.785 130.587 239.278 120.56 226.265 120.56C219.438 120.56 213.892 123.12 209.625 128.24C205.572 133.36 203.545 141.467 203.545 152.56V238H131.225V62.96H200.025V79.28C213.038 66.2667 229.572 59.76 249.625 59.76C261.358 59.76 271.918 62 281.305 66.48C290.692 70.7467 298.372 77.36 304.345 86.32C311.385 77.7867 319.918 71.28 329.945 66.8C339.972 62.1067 350.958 59.76 362.905 59.76ZM445.478 184.24L433.958 196.72V238H361.638V0.559986H433.958V113.84L484.198 62.96H569.638L497.318 138.8L575.398 238H488.038L445.478 184.24Z" fill="white"/>
</svg>
